HIERARCHY
ROOT Hips
{
	OFFSET 0.000000 0.000000 0.000000 
	CHANNELS 6 Xposition Yposition Zposition Zrotation Yrotation Xrotation
	JOINT LeftUpLeg
	{
		OFFSET 1.363060 -1.794630 0.839290 
		CHANNELS 3 Zrotation Yrotation Xrotation
		JOINT LeftLeg
		{
			OFFSET 2.448110 -6.726130 0.000000 
			CHANNELS 3 Zrotation Yrotation Xrotation
			JOINT LeftFoot
			{
				OFFSET 2.562200 -7.039590 0.000000 
				CHANNELS 3 Zrotation Yrotation Xrotation
				JOINT LeftToeBase
				{
					OFFSET 0.157640 -0.433110 2.322550 
					CHANNELS 3 Zrotation Yrotation Xrotation
					End Site
					{
						OFFSET 0.000000 0.000000 0.000000 
					}
				}
			}
		}
	}
	JOINT RightUpLeg
	{
		OFFSET -1.305520 -1.794630 0.839290 
		CHANNELS 3 Zrotation Yrotation Xrotation
		JOINT RightLeg
		{
			OFFSET -2.542530 -6.985550 0.000000 
			CHANNELS 3 Zrotation Yrotation Xrotation
			JOINT RightFoot
			{
				OFFSET -2.568260 -7.056230 0.000000 
				CHANNELS 3 Zrotation Yrotation Xrotation
				JOINT RightToeBase
				{
					OFFSET -0.164730 -0.452590 2.363150 
					CHANNELS 3 Zrotation Yrotation Xrotation
					End Site
					{
						OFFSET 0.000000 0.000000 0.000000 
					}
				}
			}
		}
	}
	JOINT Spine
	{
		OFFSET 0.028270 2.035590 -0.193380 
		CHANNELS 3 Zrotation Yrotation Xrotation
		JOINT Spine1
		{
			OFFSET 0.056720 2.048850 -0.042750 
			CHANNELS 3 Zrotation Yrotation Xrotation
			JOINT Neck1
			{
				OFFSET -0.054170 1.746240 0.172020 
				CHANNELS 3 Zrotation Yrotation Xrotation
				JOINT Head
				{
					OFFSET 0.104070 1.761360 -0.123970 
					CHANNELS 3 Zrotation Yrotation Xrotation
					End Site
					{
						OFFSET 0.000000 0.000000 0.000000 
					}
				}
			}
			JOINT LeftArm
			{
				OFFSET 3.362410 1.200890 -0.311210 
				CHANNELS 3 Zrotation Yrotation Xrotation
				JOINT LeftForeArm
				{
					OFFSET 4.983000 -0.000000 -0.000000 
					CHANNELS 3 Zrotation Yrotation Xrotation
					JOINT LeftHand
					{
						OFFSET 3.483560 -0.000000 -0.000000 
						CHANNELS 3 Zrotation Yrotation Xrotation
						JOINT LeftHandIndex1
						{
							OFFSET 0.715260 -0.000000 -0.000000 
							CHANNELS 3 Zrotation Yrotation Xrotation
							End Site
							{
								OFFSET 0.000000 0.000000 0.000000 
							}
						}
					}
				}
			}
			JOINT RightArm
			{
				OFFSET -3.136600 1.374050 -0.404650 
				CHANNELS 3 Zrotation Yrotation Xrotation
				JOINT RightForeArm
				{
					OFFSET -5.241900 -0.000000 -0.000000 
					CHANNELS 3 Zrotation Yrotation Xrotation
					JOINT RightHand
					{
						OFFSET -3.444170 -0.000000 -0.000000 
						CHANNELS 3 Zrotation Yrotation Xrotation
						JOINT RightHandIndex1
						{
							OFFSET -0.622530 -0.000000 -0.000000 
							CHANNELS 3 Zrotation Yrotation Xrotation
							End Site
							{
								OFFSET 0.000000 0.000000 0.000000 
							}
						}
					}
				}
			}
		}
	}
}
MOTION
Frames: 10
Frame Time: 0.041667
4.260398 17.568058 -7.789236 -9.627181 -26.696925 18.282732 -5.042990 -11.680142 -19.528433 -0.504003 9.634059 25.068802 -0.532456 5.821289 -9.540607 2.271900 -9.410800 -27.089000 33.684944 6.518666 -13.844577 2.095559 -1.435328 2.848017 -0.001970 3.689028 1.695897 -2.793900 10.353700 -30.129800 -1.446176 -3.128476 -0.333777 -8.759144 -1.491451 2.437738 3.770019 9.179711 25.786628 2.214100 2.578600 21.337800 -84.579125 -35.917096 79.375359 27.041389 -34.454192 -9.998358 -0.018061 -1.745111 -30.176918 -7.125000 0.000000 0.000000 29.668799 9.694165 52.681460 -134.166497 50.855131 -97.639919 0.236011 -0.005469 -42.409382 7.125000 0.000000 0.000000 
4.257920 17.569743 -7.791020 -9.653474 -26.677324 18.351344 -4.980757 -11.760398 -19.553172 -0.509219 9.633082 25.049347 -0.540314 5.872629 -9.589303 2.232700 -9.334800 -26.848500 33.723535 6.518446 -13.903872 2.096232 -1.439811 2.845552 -0.002490 3.693048 1.692273 -2.724500 10.235100 -29.741500 -1.425438 -3.118687 -0.324572 -8.686902 -1.489474 2.455350 3.724620 9.221481 25.766915 2.173600 2.598400 21.305200 -84.578361 -35.864320 79.471065 27.448392 -34.872466 -10.283737 0.017582 -1.767897 -31.298995 -7.125000 0.000000 0.000000 29.557008 9.680412 52.438483 -134.214167 50.839800 -97.674513 0.223648 -0.016045 -41.895392 7.125000 0.000000 0.000000 
4.253955 17.570834 -7.792705 -9.713263 -26.664541 18.442304 -4.895650 -11.750801 -19.612920 -0.509263 9.630475 25.031391 -0.541669 5.876882 -9.584725 2.201600 -9.274000 -26.656400 33.802530 6.538742 -13.957984 2.096668 -1.445190 2.842232 -0.002147 3.724005 1.699306 -2.714400 10.217700 -29.684600 -1.408318 -3.110673 -0.315401 -8.614952 -1.489352 2.501984 3.939936 9.404240 25.899250 2.380300 2.646000 21.408100 -84.523760 -35.735796 79.160682 27.582430 -34.991273 -10.338634 -0.028315 -1.741417 -30.279442 -7.125000 0.000000 0.000000 29.449321 9.698196 52.361108 -134.217304 50.837001 -97.675223 0.223816 -0.027340 -41.555201 7.125000 0.000000 0.000000 
4.250584 17.572023 -7.793895 -9.757181 -26.618553 18.530618 -4.819045 -11.782108 -19.676928 -0.513012 9.627562 25.004339 -0.553851 5.930657 -9.543813 2.221300 -9.312500 -26.777900 33.865692 6.524632 -14.029497 2.095555 -1.450603 2.840048 -0.001437 3.769670 1.710512 -2.704500 10.200600 -29.628900 -1.390959 -3.131798 -0.311741 -8.551650 -1.502666 2.534800 4.003941 9.364937 25.985098 2.424200 2.628000 21.518900 -84.406031 -35.481203 78.443568 27.720830 -35.126013 -10.410341 -0.054473 -1.713753 -28.257639 -7.125000 0.000000 0.000000 29.405744 9.776006 52.237122 -134.221067 50.835343 -97.674555 0.218427 -0.041591 -41.532639 7.125000 0.000000 0.000000 
4.249692 17.573213 -7.793498 -9.752956 -26.522464 18.590100 -4.766795 -11.968041 -19.699726 -0.526536 9.625459 24.963988 -0.579235 6.068287 -9.557373 2.247300 -9.363300 -26.938400 33.881308 6.445685 -14.119863 2.093245 -1.455162 2.840518 -0.001076 3.804037 1.709223 -2.695900 10.185700 -29.580100 -1.371961 -3.164194 -0.306091 -8.510770 -1.518787 2.545568 3.854984 9.358424 25.903268 2.278700 2.646500 21.437300 -84.268977 -35.388878 78.520476 28.095498 -35.492036 -10.652774 -0.054112 -1.721548 -29.504328 -7.125000 0.000000 0.000000 29.313577 9.794738 52.148688 -134.282461 50.811344 -97.715495 0.210703 -0.055944 -41.073689 7.125000 0.000000 0.000000 
4.249197 17.573807 -7.792110 -9.718371 -26.452873 18.623081 -4.749349 -12.181769 -19.678989 -0.543553 9.619127 24.916126 -0.601422 6.198598 -9.612342 2.249300 -9.367100 -26.950700 33.860348 6.374659 -14.193185 2.091705 -1.458132 2.841185 -0.001528 3.809260 1.700324 -2.687900 10.171800 -29.534800 -1.371845 -3.203458 -0.293487 -8.530128 -1.534112 2.580499 3.769602 9.366451 25.893947 2.196200 2.660200 21.434800 -84.157737 -35.543618 78.819179 28.222266 -35.607034 -10.735750 -0.027350 -1.727560 -30.782949 -7.125000 0.000000 0.000000 29.125338 9.801672 52.263956 -134.438248 50.733830 -97.830283 0.207694 -0.067124 -40.478781 7.125000 0.000000 0.000000 
4.246917 17.574898 -7.792011 -9.699140 -26.454794 18.650403 -4.749434 -12.245480 -19.662218 -0.554614 9.606875 24.872635 -0.614329 6.269630 -9.629538 2.257000 -9.382000 -26.997800 33.847371 6.369729 -14.227704 2.090878 -1.460016 2.839715 -0.001344 3.830111 1.686751 -2.683100 10.163500 -29.507700 -1.387420 -3.223271 -0.283576 -8.571962 -1.540306 2.604242 3.780320 9.414909 25.892192 2.213100 2.676700 21.413900 -84.078799 -35.605934 78.847328 28.170948 -35.549227 -10.693357 -0.015407 -1.714190 -30.386723 -7.125000 0.000000 0.000000 28.916404 9.816678 52.632405 -134.762107 50.566532 -98.075833 0.210031 -0.067321 -40.401030 7.125000 0.000000 0.000000 
4.243249 17.575889 -7.792408 -9.708895 -26.515027 18.660540 -4.751799 -12.171824 -19.645079 -0.556805 9.593693 24.847298 -0.617406 6.277498 -9.607729 2.254200 -9.376700 -26.980900 33.861428 6.410151 -14.207690 2.091012 -1.459917 2.838090 -0.000273 3.862913 1.665585 -2.715500 10.219600 -29.690800 -1.395146 -3.186937 -0.271620 -8.561596 -1.523676 2.619065 3.821757 9.496228 25.880357 2.265400 2.699600 21.355900 -84.088328 -35.572046 78.675847 28.110502 -35.485165 -10.637128 -0.046351 -1.696731 -29.252263 -7.125000 0.000000 0.000000 28.763648 9.768035 53.004627 -135.105818 50.388220 -98.338067 0.221746 -0.061043 -40.490253 7.125000 0.000000 0.000000 
4.240473 17.577277 -7.791317 -9.706460 -26.568546 18.661797 -4.768040 -12.112292 -19.631591 -0.557026 9.587210 24.837941 -0.617242 6.270521 -9.586372 2.251400 -9.371300 -26.963700 33.860057 6.434951 -14.187622 2.091339 -1.459010 2.837396 0.000511 3.883403 1.634238 -2.761200 10.298100 -29.947600 -1.394537 -3.134943 -0.260784 -8.527137 -1.500289 2.635525 3.839998 9.519192 25.917688 2.278000 2.708100 21.376300 -84.180959 -35.500653 78.445694 28.185476 -35.555226 -10.670742 -0.103315 -1.686251 -28.581054 -7.125000 0.000000 0.000000 28.706367 9.661925 53.014041 -135.214654 50.334612 -98.420101 0.227193 -0.065770 -40.157580 7.125000 0.000000 0.000000 
4.240374 17.579061 -7.788740 -9.727469 -26.534942 18.697864 -4.731972 -12.184266 -19.630547 -0.561027 9.585536 24.823899 -0.624596 6.313668 -9.612079 2.251300 -9.371000 -26.962800 33.890324 6.400039 -14.219201 2.091493 -1.461016 2.837977 0.000934 3.902345 1.597634 -2.812100 10.384400 -30.230700 -1.385849 -3.129859 -0.263005 -8.508264 -1.499062 2.628285 3.915836 9.472244 26.036683 2.325800 2.689400 21.494900 -84.293210 -35.435709 78.239084 28.273491 -35.643261 -10.728530 -0.122769 -1.687692 -28.479684 -7.125000 0.000000 0.000000 28.668475 9.577537 52.780714 -135.112604 50.388132 -98.342955 0.223207 -0.077075 -39.504536 7.125000 0.000000 0.000000 
